<svg xmlns="http://www.w3.org/2000/svg" width="1200" height="650" viewBox="0 0 1200 650"><rect width="1200" height="650" fill="white"/><text x="600" y="45" text-anchor="middle" font-family="Arial" font-size="28" font-weight="bold">Wireless EV Charging — Prototype Architecture</text><g font-family="Arial" font-size="18" text-anchor="middle"><rect x="40" y="100" width="190" height="80" rx="12" fill="#f2f2f2" stroke="#333"/><text x="135" y="135">12 V DC Supply</text><text x="135" y="162">Protected Input</text><rect x="290" y="100" width="190" height="80" rx="12" fill="#f2f2f2" stroke="#333"/><text x="385" y="135">Oscillator /</text><text x="385" y="162">MOSFET Driver</text><rect x="540" y="100" width="190" height="80" rx="12" fill="#f2f2f2" stroke="#333"/><text x="635" y="135">TX Resonant</text><text x="635" y="162">Coil + Capacitor</text><rect x="820" y="100" width="190" height="80" rx="12" fill="#f2f2f2" stroke="#333"/><text x="915" y="135">RX Resonant</text><text x="915" y="162">Coil + Capacitor</text><rect x="820" y="330" width="190" height="80" rx="12" fill="#f2f2f2" stroke="#333"/><text x="915" y="365">Rectifier +</text><text x="915" y="392">Filter</text><rect x="540" y="330" width="190" height="80" rx="12" fill="#f2f2f2" stroke="#333"/><text x="635" y="365">CC/CV</text><text x="635" y="392">Regulator</text><rect x="290" y="330" width="190" height="80" rx="12" fill="#f2f2f2" stroke="#333"/><text x="385" y="365">Battery /</text><text x="385" y="392">DC Load</text><rect x="540" y="500" width="190" height="65" rx="12" fill="#f2f2f2" stroke="#333"/><text x="635" y="540">MCU Monitoring (Optional)</text><path d="M230 140 L290 140 M480 140 L540 140 M730 140 L820 140" stroke="#333" stroke-width="3" marker-end="url(#arrow)"/><path d="M915 180 L915 330" stroke="#333" stroke-width="3" marker-end="url(#arrow)"/><path d="M820 370 L730 370" stroke="#333" stroke-width="3" marker-end="url(#arrow)"/><path d="M540 370 L480 370" stroke="#333" stroke-width="3" marker-end="url(#arrow)"/><path d="M635 410 L635 500" stroke="#333" stroke-width="3" marker-end="url(#arrow)"/><text x="775" y="230" font-size="16">~~~ magnetic coupling ~~~</text></g><defs><marker id="arrow" markerWidth="10" markerHeight="10" refX="8" refY="3" orient="auto"><path d="M0,0 L0,6 L9,3 z" fill="#333"/></marker></defs></svg>